<?xml version="1.0"?>

<svg xmlns:dc="http://purl.org/dc/elements/1.1/" xmlns:cc="http://web.resource.org/cc/" xmlns:rdf="http://www.w3.org/1999/02/22-rdf-syntax-ns#" xmlns:svg="http://www.w3.org/2000/svg" xmlns="http://www.w3.org/2000/svg" xmlns:sodipodi="http://sodipodi.sourceforge.net/DTD/sodipodi-0.dtd" xmlns:inkscape="http://www.inkscape.org/namespaces/inkscape" version="1.0" width="601" height="601" viewBox="0 0 600 599.99902" id="Layer_1" xml:space="preserve"><metadata id="metadata36"><RDF><Work><format>image/svg+xml</format><type></type></Work></RDF></metadata><namedview guidetolerance="10.0" gridtolerance="10.0" objecttolerance="10.0" borderopacity="1.0" bordercolor="#666666" pagecolor="#ffffff" id="base" width="601px" height="601px"></namedview><defs id="defs1659">
&#x9;
&#x9;
&#x9;
&#x9;
</defs>
<g transform="matrix(0.9983361,0,0,0.9983377,0.4991681,0.4986859)" style="fill:#ffffff;fill-opacity:1;stroke:#000000;stroke-width:0.99999928;stroke-miterlimit:4;stroke-dasharray:none;stroke-opacity:1" id="g1600">
&#x9;&#x9;<path id="path1602" style="fill:#ffffff;fill-opacity:1;stroke:#000000;stroke-width:0.99999928;stroke-miterlimit:4;stroke-dasharray:none;stroke-opacity:1" d="M 80.75293,0 C 115.42871,10.583496 152.23779,16.276856 190.37695,16.276856 C 228.51563,16.276856 265.32422,10.583496 300,0.0004883 C 334.67578,10.583496 371.48438,16.276856 409.62305,16.276856 C 447.76172,16.276856 484.57129,10.583496 519.24707,0 C 569.8125,63.908203 600,144.67822 600,232.5 C 600,413.92383 471.16992,565.25391 300,599.99902 C 128.83008,565.25391 0,413.92383 0,232.5 C 0,144.67822 30.187988,63.907715 80.75293,0 z "></path>
&#x9;&#x9;
&#x9;&#x9;&#x9;<path id="path1604" style="fill:#ffffff;fill-opacity:1;stroke:#000000;stroke-width:0.99999928;stroke-linecap:round;stroke-linejoin:round;stroke-miterlimit:4;stroke-dasharray:none;stroke-opacity:1" d="M 80.75293,0 C 115.42871,10.583496 152.23779,16.276856 190.37695,16.276856 C 228.51563,16.276856 265.32422,10.583496 300,0.0004883 C 334.67578,10.583496 371.48438,16.276856 409.62305,16.276856 C 447.76172,16.276856 484.57129,10.583496 519.24707,0 C 569.8125,63.908203 600,144.67822 600,232.5 C 600,413.92383 471.16992,565.25391 300,599.99902 C 128.83008,565.25391 0,413.92383 0,232.5 C 0,144.67822 30.187988,63.907715 80.75293,0 z "></path>
&#x9;</g><g style="fill:#003f87;fill-opacity:1;stroke:none;stroke-opacity:1" transform="matrix(1.0070935,0,0,1.0102847,-2.1280324,-3.66885)" id="g1606">
&#x9;&#x9;<path id="path1608" style="fill:#003f87;fill-opacity:1;stroke:none;stroke-opacity:1" d="M 15,232.5 C 15,200.521 19.169434,169.51611 26.994629,139.99902 L 573.00586,139.99902 C 580.83008,169.51611 585,200.521 585,232.5 C 585,405.60547 462.82617,550.17188 300,584.67676 C 137.17432,550.17188 15,405.60547 15,232.5 z "></path>
&#x9;</g><g style="fill:#af1e2d;fill-opacity:1;stroke:none;stroke-opacity:1" transform="matrix(1.0125461,0,0,1.0271486,-3.7638021,-3.1017482)" id="g1610">
&#x9;&#x9;<path id="path1612" style="fill:#af1e2d;fill-opacity:1;stroke:none;stroke-opacity:1" d="M 31.324219,124.99902 C 43.579102,85.77832 62.362793,49.44043 86.402832,17.259766 C 119.50439,26.392578 154.37061,31.272461 190.37695,31.272461 C 228.4375,31.272461 265.22461,25.820801 300,15.654785 C 334.77539,25.820801 371.5625,31.272461 409.62305,31.272461 C 445.62891,31.272461 480.49609,26.392578 513.59766,17.259766 C 537.63672,49.44043 556.4209,85.77832 568.67578,124.99902 L 31.324219,124.99902 L 31.324219,124.99902 z "></path>
&#x9;</g>




<path style="font-size:373.12530518px;font-style:normal;font-variant:normal;font-weight:normal;font-stretch:normal;text-align:center;line-height:125%;writing-mode:lr-tb;text-anchor:middle;fill:#ffffff;fill-opacity:1;font-family:Roadgeek 2005 Series D" d="M 384.9295,360.67824 C 384.92931,372.09934 382.6311,382.90081 378.03488,393.08268 C 373.43828,403.26462 367.22953,412.20555 359.4086,419.90543 C 351.58733,427.60536 342.58587,433.68911 332.40418,438.15672 C 322.22222,442.62434 311.42085,444.85814 300.00003,444.85814 C 288.57141,444.85814 277.76625,442.62434 267.5845,438.15672 C 257.40259,433.68911 248.40114,427.60536 240.58009,419.90543 C 232.75894,412.20555 226.55209,403.26462 221.95949,393.08268 C 217.36685,382.90081 215.07053,372.09934 215.07055,360.67824 C 215.07053,348.75711 217.55252,338.01627 222.51652,328.4557 C 227.48047,318.89534 234.55886,310.3902 243.75173,302.94026 C 231.58048,290.02639 225.49487,274.87667 225.4949,257.49107 C 225.49487,247.80574 227.48235,238.67915 231.45735,230.11129 C 235.43228,221.54383 240.83392,213.96898 247.66228,207.38669 C 254.49053,200.80486 262.37415,195.65139 271.31317,191.92623 C 280.25202,188.20157 289.8143,186.33912 300.00003,186.33886 C 309.93544,186.33912 319.49583,188.20157 328.68121,191.92623 C 337.86631,195.65139 345.87498,200.80486 352.70723,207.38669 C 359.53917,213.96898 365.00333,221.54383 369.09973,230.11129 C 373.19577,238.67915 375.24388,247.80574 375.24406,257.49107 C 375.24388,266.18396 373.56712,274.31773 370.21378,281.89244 C 366.86007,289.46747 362.07989,296.4834 355.87319,302.94026 C 365.55844,310.3902 372.82252,319.0185 377.66543,328.82515 C 382.50795,338.63203 384.92931,349.24972 384.9295,360.67824 L 384.9295,360.67824 z M 335.01312,256.37701 C 335.01298,248.1771 331.59882,241.15927 324.77065,235.32351 C 317.94221,229.48815 309.68534,226.57038 300.00003,226.57016 C 290.3145,226.57038 282.05763,229.48815 275.22941,235.32351 C 268.40102,241.15927 264.98686,248.1771 264.98694,256.37701 C 264.98686,263.827 268.40102,270.22148 275.22941,275.56048 C 282.05763,280.89979 290.3145,283.56938 300.00003,283.56922 C 309.68534,283.56938 317.94221,280.89979 324.77065,275.56048 C 331.59882,270.22148 335.01298,263.827 335.01312,256.37701 L 335.01312,256.37701 z M 345.43747,361.41717 C 345.43732,356.20313 344.19632,351.29975 341.71449,346.70699 C 339.23234,342.11443 335.94324,338.14131 331.84717,334.78767 C 327.7508,331.43421 322.9706,328.76464 317.50658,326.77891 C 312.04229,324.79342 306.20678,323.80062 300.00003,323.8005 C 293.79306,323.80062 288.02007,324.79342 282.68106,326.77891 C 277.34185,328.76464 272.62229,331.43421 268.52236,334.78767 C 264.42226,338.14131 261.19378,342.11443 258.8369,346.70699 C 256.4799,351.29975 255.30144,356.20313 255.3015,361.41717 C 255.30144,367.38163 256.4799,372.97089 258.8369,378.18494 C 261.19378,383.39911 264.42226,387.99176 268.52236,391.96294 C 272.62229,395.93418 277.34185,399.03765 282.68106,401.27331 C 288.02007,403.50905 293.79306,404.6269 300.00003,404.62686 C 306.20678,404.6269 312.10482,403.50905 317.69415,401.27331 C 323.28322,399.03765 328.12593,395.93418 332.22229,391.96294 C 336.31839,387.99176 339.54496,383.39911 341.90206,378.18494 C 344.25884,372.97089 345.43732,367.38163 345.43747,361.41717 L 345.43747,361.41717 z " id="text5085"></path>
<path style="font-size:93.21589661px;font-style:normal;font-variant:normal;font-weight:normal;font-stretch:normal;text-align:center;line-height:125%;writing-mode:lr-tb;text-anchor:middle;fill:#ffffff;fill-opacity:1;font-family:Roadgeek 2005 Series C" d="M 108.86859,112.81165 L 108.86859,50.416161 L 117.60967,50.416161 L 117.60967,112.81165 L 108.86859,112.81165 z M 159.56965,112.81165 L 140.31942,70.997717 L 140.31942,112.81165 L 131.39104,112.81165 L 131.39104,50.416161 L 140.31942,50.416161 L 157.42977,87.853449 L 157.42977,50.416161 L 166.35816,50.416161 L 166.35816,112.81165 L 159.56965,112.81165 z M 195.41654,58.706192 L 195.41654,112.81165 L 186.39735,112.81165 L 186.39735,58.706192 L 175.05098,58.706192 L 175.05098,50.416161 L 206.7629,50.416161 L 206.7629,58.706192 L 195.41654,58.706192 z M 215.30532,112.81165 L 215.30532,50.416161 L 244.59927,50.416161 L 244.59927,59.172274 L 224.2337,59.172274 L 224.2337,74.908269 L 237.16084,74.908269 L 237.16084,83.476813 L 224.2337,83.476813 L 224.2337,104.05837 L 247.01726,104.05837 L 247.01726,112.81165 L 215.30532,112.81165 z M 283.20473,112.81165 L 274.92624,83.476813 L 266.37247,83.476813 L 266.37247,112.81165 L 257.4441,112.81165 L 257.4441,50.416161 L 276.04442,50.416161 C 278.46238,50.416224 280.67885,50.819784 282.69389,51.62684 C 284.70884,52.434021 286.44475,53.551862 287.90163,54.980368 C 289.35844,56.408988 290.47425,58.162956 291.24907,60.242277 C 292.02379,62.321703 292.41119,64.60333 292.41123,67.087165 C 292.41119,70.812085 291.66716,73.978511 290.17914,76.586455 C 288.69102,79.19447 286.45894,81.056433 283.48285,82.172347 L 292.41123,112.81165 L 283.20473,112.81165 z M 283.67015,67.087165 C 283.67012,64.665853 282.92609,62.741367 281.43805,61.313699 C 279.94996,59.886136 277.99694,59.172328 275.579,59.172274 L 266.37247,59.172274 L 266.37247,74.908269 L 275.579,74.908269 C 278.18236,74.908307 280.18173,74.240918 281.57712,72.906101 C 282.97244,71.571363 283.67012,69.631721 283.67015,67.087165 L 283.67015,67.087165 z M 334.56419,95.768339 C 334.56416,98.31476 334.11481,100.6897 333.21614,102.89316 C 332.31739,105.09665 331.07766,107.00549 329.49693,108.61973 C 327.91613,110.23398 326.08704,111.52233 324.00964,112.48482 C 321.93219,113.4473 319.68449,113.92853 317.26652,113.92853 C 314.53824,113.92853 312.08951,113.40088 309.92033,112.34556 C 307.75114,111.29024 305.92252,109.86263 304.43447,108.0627 C 302.9464,106.26279 301.79937,104.18295 300.99337,101.82315 C 300.18737,99.463388 299.78437,97.011244 299.78438,94.466716 L 308.52546,94.466716 C 308.52544,95.770251 308.69573,97.058136 309.0363,98.330376 C 309.37684,99.602646 309.90376,100.75127 310.61707,101.77627 C 311.33035,102.80129 312.22952,103.62404 313.3146,104.24452 C 314.39964,104.86503 315.71694,105.17527 317.26652,105.17526 C 318.44523,105.17527 319.57711,104.92707 320.66221,104.43067 C 321.74724,103.93429 322.67716,103.25127 323.45197,102.38161 C 324.22672,101.51197 324.84634,100.50307 325.31087,99.354907 C 325.77533,98.206766 326.00757,97.011244 326.0076,95.768339 C 326.00757,93.968443 325.63579,92.37031 324.89226,90.973934 C 324.14867,89.577602 322.84697,88.165144 320.98716,86.736554 C 320.67685,86.425859 320.55292,86.254867 320.61538,86.223579 C 320.6778,86.192343 320.49191,86.021825 320.05771,85.712023 C 319.62347,85.402277 318.70868,84.796937 317.31335,83.896004 C 315.91798,82.995129 313.63953,81.459044 310.478,79.287747 C 307.93703,77.548497 306.03083,75.514594 304.75942,73.186035 C 303.48797,70.857556 302.85226,68.296942 302.85226,65.504186 C 302.85226,63.268552 303.25526,61.173074 304.06128,59.217745 C 304.86725,57.262525 305.99866,55.539819 307.45551,54.049621 C 308.91235,52.559541 310.60192,51.395283 312.52421,50.556838 C 314.44647,49.718521 316.52295,49.29933 318.75365,49.299267 C 320.98618,49.29933 323.04799,49.70289 324.93908,50.509945 C 326.83013,51.317127 328.47286,52.434967 329.86729,53.863473 C 331.26166,55.292095 332.37747,56.999643 333.21474,58.986126 C 334.0519,60.972715 334.50173,63.1454 334.56419,65.504186 L 326.0076,65.504186 C 325.88459,63.331075 325.14102,61.592738 323.77692,60.289169 C 322.41275,58.985706 320.73833,58.333948 318.75365,58.333894 C 316.70836,58.333948 314.97291,59.016967 313.54731,60.382954 C 312.12167,61.749046 311.40886,63.456122 311.40887,65.504186 C 311.40886,67.055948 311.81186,68.359465 312.61787,69.41474 C 313.42384,70.4701 314.97339,71.649518 317.26652,72.952995 C 323.28119,76.429707 327.6678,79.968432 330.42638,83.569177 C 333.1849,87.16998 334.56416,91.236364 334.56419,95.768339 L 334.56419,95.768339 z M 360.52064,58.706192 L 360.52064,112.81165 L 351.50144,112.81165 L 351.50144,58.706192 L 340.15508,58.706192 L 340.15508,50.416161 L 371.867,50.416161 L 371.867,58.706192 L 360.52064,58.706192 z M 406.44816,112.81165 L 402.07763,95.768339 L 388.68506,95.768339 L 384.59548,112.81165 L 375.57345,112.81165 L 391.10305,50.416161 L 399.84695,50.416161 L 415.37654,112.81165 L 406.44816,112.81165 z M 395.2891,69.042441 L 390.91856,87.015068 L 399.84695,87.015068 L 395.2891,69.042441 z M 439.53084,58.706192 L 439.53084,112.81165 L 430.51165,112.81165 L 430.51165,58.706192 L 419.16529,58.706192 L 419.16529,50.416161 L 450.87721,50.416161 L 450.87721,58.706192 L 439.53084,58.706192 z M 459.41964,112.81165 L 459.41964,50.416161 L 488.71358,50.416161 L 488.71358,59.172274 L 468.34802,59.172274 L 468.34802,74.908269 L 481.27515,74.908269 L 481.27515,83.476813 L 468.34802,83.476813 L 468.34802,104.05837 L 491.13157,104.05837 L 491.13157,112.81165 L 459.41964,112.81165 z " id="text6060"></path>
</svg>